<svg height="512" viewBox="0 0 56 44" width="512" xmlns="http://www.w3.org/2000/svg"><g id="Page-1" fill="none" fill-rule="evenodd"><g id="006---Bulldozer" fill="rgb(0,0,0)" fill-rule="nonzero"><path id="Shape" d="m43.205 27.886-2.241 3.814-1.355 2.3h2.3l2.814-4.772z"/><path id="Rectangle-path" d="m8 26h26v2h-26z"/><path id="Shape" d="m7 44h28c2.701467-.0014523 5.160553-1.558575 6.317-4h-2.317c-.943233 1.2602735-2.4258415 2.0015777-4 2h-28c-2.76142375 0-5-2.2385763-5-5s2.23857625-5 5-5h28c1.0449697-.0000781 2.0631927.3303456 2.909.944l1.017-1.729c-1.156783-.7904338-2.5249536-1.2138488-3.926-1.215h-28c-3.86599325 0-7 3.1340068-7 7s3.13400675 7 7 7z"/><path id="Shape" d="m12 5c0-1.65685425 1.3431458-3 3-3h6.221l-.613-1.4c-.158974-.36425542-.5185648-.59979524-.916-.6h-10.692c-.55228475 0-1 .44771525-1 1v13h4z"/><path id="Shape" d="m14 5v9h12.471l-4.371-10h-7.1c-.5522847 0-1 .44771525-1 1z"/><path id="Shape" d="m35 34c-1.3445514-.0130665-2.5335703.8700973-2.9095113 2.1610882-.3759409 1.2909909.1530327 2.6744399 1.2943904 3.3852786s2.6162834.5754203 3.6091209-.3313668c-.6326077-.5626448-.9945217-1.3688822-.9945217-2.2155s.361914-1.6528552.9945217-2.2155c-.5430775-.5017499-1.254622-.7815146-1.994-.784z"/><path id="Shape" d="m3 24h35.8l-8.783-7.75c-.0825992-.0789062-.1607212-.1623698-.234-.25h-26.783c-.55228475 0-1 .4477153-1 1v6c0 .5522847.44771525 1 1 1z"/><path id="Shape" d="m48 29.449v-2.658l-15.342-13.541c-.1930985-.1799696-.4528478-.2706642-.716-.25-.2661869.0160258-.5149472.137706-.691.338-.1764793.1954789-.2659872.4542578-.248.717.0148843.2662682.136351.515329.337.691z"/><path id="Shape" d="m48 19.738-1.699 2.886 1.699 1.5z"/><path id="Shape" d="m24.974 34c1.3676345 1.766197 1.3676345 4.233803 0 6h6.052c-1.3676345-1.766197-1.3676345-4.233803 0-6z"/><path id="Shape" d="m38 37c0 .5522847.4477153 1 1 1h9v-2h-9c-.5522847 0-1 .4477153-1 1z"/><path id="Shape" d="m54 38.972v-24.972h-4v30h5.216c-.8011555-1.5548021-1.2181277-3.2789274-1.216-5.028z"/><circle id="Oval" cx="21" cy="37" r="3"/><path id="Shape" d="m10.974 34c1.3676345 1.766197 1.3676345 4.233803 0 6h6.052c-1.3676345-1.766197-1.3676345-4.233803 0-6z"/><circle id="Oval" cx="7" cy="37" r="3"/></g></g></svg>